<?xml version="1.0" encoding="iso-8859-1"?>
<!-- Generator: Adobe Illustrator 19.0.0, SVG Export Plug-In . SVG Version: 6.00 Build 0)  -->
<svg xmlns="http://www.w3.org/2000/svg" xmlns:xlink="http://www.w3.org/1999/xlink" version="1.1" id="Capa_1" x="0px" y="0px" viewBox="0 0 512 512" style="enable-background:new 0 0 512 512;" xml:space="preserve" width="512px" height="512px">
<g>
	<g>
		<path d="M203.006,214.222c-2.704-3.138-7.44-3.487-10.579-0.784L89.932,301.806c-3.137,2.705-3.488,7.44-0.783,10.579    c1.483,1.721,3.577,2.603,5.684,2.603c1.734,0,3.477-0.599,4.894-1.819L202.223,224.8    C205.36,222.095,205.711,217.36,203.006,214.222z" fill="#e65100"/>
	</g>
</g>
<g>
	<g>
		<path d="M422.263,301.805l-102.496-88.367c-3.137-2.704-7.873-2.353-10.579,0.783c-2.705,3.138-2.354,7.873,0.783,10.579    l102.496,88.368c1.417,1.222,3.159,1.819,4.894,1.819c2.106,0,4.201-0.883,5.684-2.603    C425.751,309.245,425.4,304.51,422.263,301.805z" fill="#e65100"/>
	</g>
</g>
<g>
	<g>
		<path d="M481.225,292.56c-4.123-0.251-7.694,2.887-7.95,7.021c-0.994,16.035-7.062,30.982-17.549,43.226    c-26.586,31.044-74.003,33.448-104.752,7.087c-26.123-22.396-46.801-49.695-61.56-79.666    c-15.223-30.914-24.298-66.578-25.799-87.597c-0.167-1.59,1.024-3.011,2.622-3.113c61.422-3.925,128.578,14.954,181.072,59.254    c9.245,7.8,16.475,17.84,20.912,29.033c1.526,3.85,5.885,5.734,9.737,4.209c3.851-1.526,5.735-5.886,4.208-9.737    c-5.345-13.486-14.053-25.578-25.182-34.97c-32.523-27.448-70.567-46.296-113.072-56.02c-12.376-2.831-24.036-4.614-34.581-5.7    c20.619-28.46,15.229-68.432-12.571-90.211c14.722-32.075,44.049-54.552,79.278-60.479c4.085-0.687,6.839-4.556,6.152-8.641    c-0.687-4.085-4.555-6.841-8.641-6.152c-20.34,3.422-39.612,12.004-55.734,24.816c-14.399,11.444-26.023,26.072-33.927,42.587    c-2.581-1.197-5.259-2.247-8.034-3.12c-3.953-1.243-8.162,0.951-9.407,4.902s0.951,8.162,4.902,9.407    c4.145,1.305,8.019,3.102,11.579,5.307c0.176,0.136,0.353,0.265,0.532,0.38c0.156,0.1,0.321,0.175,0.482,0.262    c27.476,17.937,30.753,57.015,6.846,79.43h-69.376c-27.973-26.227-17.948-73.61,19.438-85.38c3.951-1.244,6.146-5.455,4.902-9.407    c-1.244-3.951-5.454-6.147-9.406-4.902c-3.237,1.019-6.344,2.275-9.316,3.732c-7.907-16.766-19.638-31.615-34.214-43.199    c-16.122-12.813-35.394-21.395-55.734-24.816c-4.082-0.688-7.953,2.067-8.64,6.152c-0.688,4.084,2.067,7.953,6.151,8.641    c35.568,5.984,65.13,28.836,79.708,61.406c-14.864,12.194-23.925,30.589-23.925,50.781c0,13.99,4.451,27.404,12.494,38.503    c-53.614,5.52-104.865,25.607-147.654,61.721c-62.332,52.599-26.235,155.701,56.97,155.701c19.264,0,37.761-6.037,53.215-17.323    c-2.271,35.273,14.998,69.33,46.027,88.203c24.074,14.642,27.36,17.501,37.172,19.194v31.415c0,4.143,3.358,7.5,7.5,7.5    c4.142,0,7.5-3.357,7.5-7.5v-31.578c9.188-1.807,11.502-3.994,40.372-21.554c29.992-18.243,46.187-51.746,42.516-85.914    c37.063,27.31,90.248,22.588,120.633-12.889c12.625-14.74,19.93-32.741,21.128-52.057    C488.503,296.376,485.359,292.816,481.225,292.56z M216.681,74.236c-0.065,0.109-0.113,0.225-0.172,0.337    c-0.006,0.004-0.011,0.008-0.017,0.013C216.553,74.468,216.612,74.351,216.681,74.236z M299.974,316.762h-87.751    c8.718-11.918,15.982-23.946,22.032-35.718h43.686C283.992,292.816,291.255,304.844,299.974,316.762z M270.795,266.043h-29.394    c6.615-15.032,11.336-29.347,14.697-42.113C259.459,236.696,264.18,251.012,270.795,266.043z M161.222,349.895    c-15.016,12.873-34.233,19.244-54.121,17.949c-66.07-4.314-92.337-86.772-42.213-129.07    c45.167-38.116,102.446-59.693,169.336-59.693c12.489,0.16,12.862,0.435,13.706,1.435c0.904,1.073,0.675,1.988,0.432,4.099    C241.246,246.236,210.495,307.653,161.222,349.895z M296.174,438.552l-26.737,16.263c-8.52,5.182-19.107,5.183-27.628-0.001    c-24.393-14.837-27.001-16.092-33.43-21.615h95.472C301.43,435.12,298.872,436.912,296.174,438.552z M318.092,418.198H194.859    c-7.479-10.692-12.217-22.865-13.926-35.718h150.655C330.257,395.3,325.594,407.678,318.092,418.198z M180.328,367.479    L180.328,367.479c0.362-6.983,1.457-11.925,2.723-17.207c6.245-6.056,12.013-12.245,17.337-18.51h111.419    c4.973,5.852,10.328,11.64,16.103,17.313c1.817,7.576,3.029,11.799,3.701,18.404H180.328z" fill="#e65100"/>
	</g>
</g>
<g>
</g>
<g>
</g>
<g>
</g>
<g>
</g>
<g>
</g>
<g>
</g>
<g>
</g>
<g>
</g>
<g>
</g>
<g>
</g>
<g>
</g>
<g>
</g>
<g>
</g>
<g>
</g>
<g>
</g>
</svg>
